<svg width="107" height="30" viewBox="0 0 107 30" fill="none" xmlns="http://www.w3.org/2000/svg">
  <g clip-path="url(#clip0_164_19753)">
  <path d="M0.333984 12.5652C0.441148 12.5642 0.41457 12.4685 0.432354 12.4231C0.603493 11.9865 0.915309 11.6982 1.37817 11.6004C2.36765 11.3915 2.99757 12.1801 2.98928 12.8274C2.97246 14.1411 2.97756 15.4553 2.98755 16.7691C2.99154 17.2947 2.58192 17.8563 1.96639 17.9998C1.34115 18.1456 0.612199 17.7737 0.414406 17.1103C0.405094 17.0791 0.381642 17.0519 0.34938 17.0289C0.333984 15.5517 0.333984 14.0683 0.333984 12.5652Z" fill="white"/>
  <path d="M32.4549 30C32.4329 29.9372 32.4285 29.8745 32.4285 29.8117C32.4282 19.9153 32.4282 10.019 32.4283 0.122594C32.4283 0.0946421 32.429 0.0666904 32.4323 0.0193693C32.5926 -1.76461e-08 32.7501 -2.0892e-08 32.9271 0C32.9492 0.0627467 32.9537 0.125493 32.9537 0.18824C32.954 10.0847 32.9539 19.981 32.9539 29.8774C32.9539 29.9053 32.9532 29.9333 32.9498 29.9807C32.7894 30 32.6319 30 32.4549 30Z" fill="white"/>
  <path d="M106.913 24.8616C106.765 24.8917 106.615 24.8878 106.471 24.9154C106.041 24.9977 105.836 25.4122 105.839 25.7267C105.844 26.2153 105.84 26.7039 105.84 27.1926C105.84 27.2618 105.84 27.331 105.84 27.4251C105.578 27.4445 105.327 27.4288 105.08 27.4342C105.035 27.2721 105.022 24.5529 105.062 24.2166C105.297 24.2166 105.533 24.2166 105.788 24.2166C105.794 24.3306 105.8 24.4442 105.807 24.5877C106.114 24.275 106.47 24.1559 106.894 24.1648C106.913 24.3926 106.913 24.6173 106.913 24.8616Z" fill="white"/>
  <path d="M54.8098 7.41482C54.8098 7.01935 54.8098 6.6435 54.8098 6.25712C55.3269 6.25712 55.8261 6.25712 56.3351 6.25712C56.3351 10.6348 56.3351 15.0001 56.3351 19.3785C55.8326 19.3785 55.3384 19.3785 54.8141 19.3785C54.8047 19.1451 54.8112 18.9036 54.81 18.6624C54.8089 18.4247 54.8098 18.187 54.8098 17.9494C54.8098 17.7047 54.8098 17.4602 54.8098 17.2155C54.8098 16.9779 54.8098 16.7402 54.8098 16.5025C54.8098 16.2579 54.8098 16.0133 54.8098 15.7686C54.8098 15.531 54.8098 15.2933 54.8098 15.0557C54.8098 14.811 54.8098 14.5664 54.8098 14.3218C54.8098 14.087 54.8098 13.8523 54.8098 13.6175C54.7984 13.6135 54.787 13.6095 54.7756 13.6055C54.7568 13.6283 54.7313 13.6483 54.7203 13.6744C54.4042 14.4178 53.826 14.8755 53.0546 15.0804C51.7412 15.4293 50.5273 15.2131 49.4521 14.3701C48.774 13.8384 48.3652 13.1298 48.1212 12.3237C47.9792 11.8546 47.9165 11.3739 47.8976 10.8823C47.8704 10.1791 47.9418 9.49247 48.1668 8.82569C48.4316 8.04111 48.8617 7.36232 49.532 6.84644C50.117 6.39628 50.7796 6.14601 51.5189 6.0745C52.1191 6.01642 52.7058 6.05549 53.2781 6.24851C53.9301 6.46836 54.3946 6.89341 54.6892 7.50337C54.7114 7.54952 54.7379 7.59371 54.799 7.63187C54.8025 7.56606 54.8062 7.50026 54.8098 7.41482ZM49.6228 11.2141C49.6622 11.811 49.7931 12.3854 50.0693 12.9216C50.5028 13.7631 51.2059 14.2294 52.1556 14.2945C53.001 14.3526 53.691 14.0308 54.1904 13.3474C54.6137 12.7678 54.7958 12.1094 54.8081 11.4035C54.817 10.9005 54.8127 10.3972 54.8085 9.89408C54.8068 9.69947 54.8041 9.5029 54.7759 9.3109C54.6743 8.6194 54.3884 8.01426 53.8542 7.5425C53.3469 7.09446 52.7418 6.9083 52.0673 6.97615C51.5284 7.03033 51.031 7.20524 50.6276 7.57987C50.2638 7.91771 50.0302 8.3359 49.866 8.79687C49.5905 9.5704 49.5861 10.3701 49.6228 11.2141Z" fill="white"/>
  <path d="M38.4106 5.49634C38.4106 4.57359 38.4106 3.67182 38.4106 2.77311C38.567 2.7244 46.0524 2.7059 46.4687 2.7536C46.4687 2.90727 46.4687 3.06537 46.4687 3.22347C46.4687 3.38309 46.4687 3.54271 46.4687 3.72742C45.3879 3.72742 44.3246 3.72742 43.2612 3.72742C42.2036 3.72742 41.1459 3.72742 40.0741 3.72742C40.0741 5.18398 40.0741 6.62794 40.0741 8.09916C40.9807 8.11069 41.8936 8.10263 42.8065 8.10413C43.7211 8.10555 44.6358 8.10445 45.5617 8.10445C45.5617 8.38677 45.5617 8.64816 45.5617 8.92882C43.7277 8.92882 41.9053 8.92882 40.0714 8.92882C40.0714 10.6376 40.0714 12.327 40.0714 14.0467C40.3722 14.0504 40.6745 14.048 40.9767 14.0484C41.2823 14.0489 41.5878 14.0485 41.8933 14.0485C42.1989 14.0485 42.5044 14.0485 42.8098 14.0485C43.1082 14.0485 43.4067 14.0485 43.7051 14.0485C44.0106 14.0485 44.3161 14.0485 44.6216 14.0485C44.9271 14.0485 45.2326 14.0485 45.5382 14.0485C45.8416 14.0485 46.1452 14.0485 46.4585 14.0485C46.4585 14.3744 46.4585 14.6795 46.4585 14.9995C43.7825 14.9995 41.1089 14.9995 38.4106 14.9995C38.4106 11.8341 38.4106 8.67571 38.4106 5.49634Z" fill="white"/>
  <path d="M69.067 13.4946C68.8877 13.0619 68.7875 12.6292 68.8084 12.1762C68.8444 11.396 69.1105 10.7052 69.6626 10.1345C70.2441 9.53359 70.954 9.20122 71.7996 9.13578C72.788 9.0592 73.6804 9.28751 74.462 9.89691C74.5865 9.99401 74.6966 10.109 74.8468 10.2461C74.8468 9.9108 74.8622 9.61909 74.8427 9.32967C74.819 8.97638 74.7848 8.62151 74.719 8.27391C74.6729 8.0302 74.5878 7.78781 74.4823 7.56202C74.2671 7.10189 73.8733 6.85507 73.3774 6.76805C72.8681 6.67869 72.3634 6.6969 71.8702 6.87157C71.4865 7.00744 71.1636 7.23203 70.9069 7.53738C70.7041 7.77854 70.5298 8.04299 70.344 8.29791C70.3119 8.34196 70.285 8.38972 70.2658 8.41972C69.9546 8.11325 69.6504 7.81374 69.3393 7.50742C69.825 6.9197 70.4359 6.45947 71.2265 6.24839C72.2395 5.97791 73.2604 5.96068 74.2707 6.21321C75.31 6.47299 75.9637 7.13902 76.1752 8.18817C76.2286 8.45312 76.2621 8.72643 76.2643 8.9962C76.2809 10.9594 76.2872 12.9227 76.2962 14.8861C76.2964 14.9198 76.2905 14.9536 76.2861 15.0004C75.8136 15.0004 75.3483 15.0004 74.8586 15.0004C74.8301 14.7525 74.8585 14.4966 74.8414 14.2279C74.8069 14.2375 74.7765 14.2373 74.7594 14.252C74.1757 14.7549 73.4787 15.013 72.7307 15.1546C72.0744 15.2789 71.4199 15.2757 70.7845 15.0477C70.0023 14.7669 69.4242 14.2586 69.067 13.4946ZM73.2089 14.3952C73.8882 14.1332 74.4061 13.6902 74.7583 13.0602C74.8174 12.9547 74.8521 12.848 74.8494 12.7231C74.8419 12.3881 74.8525 12.0526 74.8435 11.7176C74.8406 11.6099 74.8181 11.4943 74.7716 11.3977C74.6132 11.0683 74.407 10.7698 74.1415 10.5114C73.1158 9.51291 71.5228 9.78796 70.8036 10.8251C70.4997 11.2632 70.3637 11.7506 70.3665 12.2844C70.3686 12.6923 70.4503 13.0694 70.6581 13.4237C71.1695 14.2959 72.2922 14.73 73.2089 14.3952Z" fill="white"/>
  <path d="M63.3813 14.2263C64.4008 13.9443 64.889 13.2389 65.0519 12.275C65.0923 12.036 65.096 11.7891 65.0966 11.5457C65.1001 9.86054 65.0985 8.17541 65.0985 6.49025C65.0985 6.41509 65.0985 6.33994 65.0985 6.25513C65.6154 6.25513 66.1098 6.25513 66.6189 6.25513C66.6189 9.1677 66.6189 12.0787 66.6189 15.0018C66.1203 15.0018 65.6261 15.0018 65.1022 15.0018C65.0933 14.6502 65.1025 14.2974 65.096 13.9067C65.0292 13.9572 64.9865 13.9852 64.9486 14.0186C64.7269 14.214 64.5179 14.4254 64.283 14.6041C63.6763 15.0658 62.9827 15.2731 62.2164 15.2226C61.9208 15.2031 61.6205 15.1863 61.3332 15.1217C60.313 14.8922 59.6451 14.2709 59.3458 13.2866C59.2614 13.0096 59.2221 12.7131 59.2066 12.4233C59.178 11.887 59.1754 11.3489 59.174 10.8116C59.1702 9.37123 59.1727 7.93075 59.1727 6.49037C59.1727 6.41543 59.1727 6.34048 59.1727 6.25517C59.6895 6.25517 60.1839 6.25517 60.7077 6.25517C60.7077 6.33661 60.7077 6.41762 60.7077 6.49863C60.7077 8.3656 60.7039 10.2325 60.7104 12.0995C60.712 12.5619 60.7719 13.0161 61.0336 13.423C61.3857 13.9707 61.8849 14.2671 62.5415 14.299C62.8178 14.3125 63.0941 14.3022 63.3813 14.2263Z" fill="white"/>
  <path d="M94.9492 12.0253C95.6992 13.0157 96.4389 13.9944 97.1992 15.0002C97.1203 15.0066 97.0753 15.0135 97.0303 15.0136C96.5329 15.0143 96.0355 15.0111 95.5382 15.0163C95.4221 15.0175 95.3431 14.9885 95.2713 14.8921C94.4534 13.7949 93.63 12.7009 92.8082 11.6064C92.7616 11.5449 92.7126 11.4857 92.6526 11.4099C92.3984 11.7412 92.1513 12.0619 91.9058 12.3831C91.2695 13.2133 90.6316 14.0425 89.9992 14.876C89.9234 14.976 89.8453 15.0203 89.7174 15.0166C89.4339 15.0084 89.1497 15.0141 88.8245 15.0141C89.1837 14.5027 89.5642 14.0414 89.9234 13.5648C90.2826 13.0884 90.6513 12.6186 91.0153 12.1457C91.3831 11.6679 91.7503 11.1901 92.1245 10.7046C91.0192 9.22619 89.9203 7.7562 88.8008 6.25835C88.8884 6.25206 88.9413 6.24509 88.9942 6.24499C89.4774 6.24414 89.9605 6.24854 90.4437 6.24175C90.5716 6.23996 90.6481 6.28229 90.7224 6.38357C91.4479 7.36616 92.1789 8.34482 92.9084 9.32424C92.9495 9.37903 92.9945 9.43082 93.0497 9.49887C93.2376 9.25413 93.4184 9.02305 93.5953 8.78905C94.2047 7.98229 94.8134 7.17563 95.4182 6.36556C95.4845 6.27711 95.5508 6.23898 95.6629 6.24194C95.951 6.24956 96.2392 6.24449 96.5724 6.24449C95.5579 7.5881 94.5703 8.89626 93.5779 10.2112C94.035 10.8163 94.4874 11.4151 94.9492 12.0253Z" fill="white"/>
  <path d="M79.4937 4.65725C79.4937 4.00917 79.4937 3.38206 79.4937 2.74463C80.0108 2.74463 80.5042 2.74463 81.0134 2.74463C81.0134 6.82845 81.0134 10.9067 81.0134 14.9995C80.5129 14.9995 80.0131 14.9995 79.4937 14.9995C79.4937 11.5535 79.4937 8.11584 79.4937 4.65725Z" fill="white"/>
  <path d="M86.3147 13.5103C86.3147 14.0183 86.3147 14.5052 86.3147 15.0028C85.7975 15.0028 85.3041 15.0028 84.7949 15.0028C84.7949 12.0896 84.7949 9.18061 84.7949 6.25806C85.2931 6.25806 85.792 6.25806 86.3147 6.25806C86.3147 8.67282 86.3147 11.0811 86.3147 13.5103Z" fill="white"/>
  <path d="M71.5206 24.468C71.8003 24.7296 71.9088 25.0531 71.9157 25.4028C71.9285 26.0526 71.919 26.7028 71.9178 27.3528C71.9178 27.3723 71.9078 27.3918 71.8995 27.4222C71.6548 27.4222 71.41 27.4222 71.1489 27.4222C71.145 27.35 71.1382 27.2826 71.138 27.2151C71.1371 26.6909 71.1374 26.1667 71.1377 25.6424C71.1378 25.4727 71.118 25.3049 71.0216 25.1613C70.9646 25.0764 70.8954 24.9861 70.809 24.9359C70.4787 24.7445 69.9042 24.805 69.6934 25.2468C69.6235 25.393 69.5851 25.5659 69.5803 25.728C69.5659 26.2169 69.5752 26.7064 69.5751 27.1956C69.5751 27.2651 69.5751 27.3347 69.5751 27.4189C69.3187 27.4189 69.0738 27.4189 68.8048 27.4189C68.8011 27.358 68.7935 27.2917 68.7934 27.2254C68.7923 26.7362 68.7997 26.2467 68.7891 25.7577C68.7854 25.5861 68.7575 25.4098 68.7067 25.2458C68.6316 25.0027 68.44 24.8785 68.1866 24.8457C67.698 24.7825 67.3378 25.0327 67.2449 25.507C67.2236 25.6157 67.2181 25.7287 67.2174 25.8397C67.2144 26.294 67.2161 26.7483 67.2161 27.2027C67.2161 27.271 67.2161 27.3393 67.2161 27.4206C66.9455 27.4206 66.6946 27.4206 66.4316 27.4206C66.4316 26.3524 66.4316 25.2933 66.4316 24.2183C66.6704 24.2183 66.9073 24.2183 67.1633 24.2183C67.169 24.3173 67.1748 24.4192 67.1825 24.5538C67.5101 24.2744 67.8712 24.1435 68.2937 24.1561C68.7267 24.169 69.0746 24.3239 69.3465 24.6693C69.6318 24.3656 69.9795 24.1953 70.3899 24.1638C70.7959 24.1327 71.1837 24.1841 71.5206 24.468Z" fill="white"/>
  <path d="M90.292 27.0268C89.9928 27.2953 89.6478 27.4423 89.2649 27.4698C88.8142 27.5023 88.3886 27.4174 88.0334 27.0403C88.0247 27.1857 88.0176 27.2978 88.0105 27.4213C87.7641 27.4213 87.5273 27.4213 87.2778 27.4213C87.2778 25.9322 87.2778 24.4531 87.2778 22.9436C87.4049 22.9436 87.5305 22.9436 87.6552 22.9436C87.7823 22.9436 87.9086 22.9436 88.0547 22.9436C88.0547 23.4732 88.0547 23.9878 88.0547 24.5303C88.1091 24.5013 88.1407 24.4907 88.1644 24.471C88.5086 24.1851 88.9168 24.1173 89.3439 24.1689C89.9542 24.2427 90.4231 24.5492 90.6386 25.1219C90.8778 25.7594 90.8305 26.3841 90.371 26.9357C90.3481 26.9627 90.326 26.9893 90.292 27.0268ZM89.0644 26.8041C89.4678 26.7906 89.7434 26.5927 89.8973 26.2311C89.996 25.9994 90.0039 25.7582 89.9399 25.5159C89.7418 24.7606 88.8568 24.6254 88.3886 25.0379C88.1423 25.2546 88.0634 25.5231 88.0586 25.8407C88.0499 26.4058 88.5165 26.8409 89.0644 26.8041Z" fill="white"/>
  <path d="M78.7783 24.1935C79.0355 24.2461 79.2307 24.383 79.4508 24.5411C79.4508 24.2514 79.4508 23.9953 79.4508 23.7391C79.4508 23.4819 79.4508 23.2246 79.4508 22.9558C79.7129 22.9558 79.9577 22.9558 80.2182 22.9558C80.2182 24.4406 80.2182 25.9252 80.2182 27.4218C79.975 27.4218 79.7366 27.4218 79.4745 27.4218C79.469 27.315 79.4634 27.2077 79.4563 27.0779C79.3805 27.1342 79.3221 27.1799 79.2612 27.2234C78.7261 27.6072 77.8611 27.5386 77.3326 27.1206C76.9499 26.818 76.7727 26.408 76.7386 25.9371C76.7107 25.5521 76.7945 25.1899 77.0098 24.8598C77.2965 24.42 77.7175 24.2082 78.2312 24.1647C78.4061 24.1498 78.5848 24.1779 78.7783 24.1935ZM79.3355 26.326C79.3687 26.2345 79.4161 26.1454 79.4327 26.0511C79.5006 25.6582 79.4366 25.2971 79.109 25.0279C78.5505 24.5693 77.7027 24.8584 77.5592 25.5552C77.4752 25.9627 77.5543 26.3322 77.8973 26.6138C78.2685 26.9186 79.0007 26.8928 79.3355 26.326Z" fill="white"/>
  <path d="M40.8139 26.6734C40.865 26.633 40.9064 26.6045 40.9395 26.5686C41.1122 26.3813 41.0996 26.1067 40.8877 25.9634C40.7506 25.8708 40.587 25.8075 40.4266 25.759C40.1224 25.6671 39.8106 25.5996 39.5044 25.514C39.2287 25.4368 38.9768 25.3182 38.7715 25.1095C38.5633 24.8979 38.5022 24.6418 38.5145 24.3644C38.5392 23.8111 38.8471 23.4547 39.3614 23.2765C40.099 23.0209 40.8235 23.0911 41.5271 23.4134C41.5775 23.4366 41.622 23.4725 41.6868 23.5136C41.6036 23.7126 41.5213 23.9095 41.4324 24.1223C41.3602 24.0908 41.2981 24.0643 41.2364 24.0367C40.8093 23.8454 40.3684 23.7441 39.8961 23.8268C39.7383 23.8545 39.5978 23.9117 39.4762 24.0144C39.2814 24.1788 39.2491 24.5518 39.5161 24.6962C39.6935 24.7923 39.8908 24.8575 40.0854 24.917C40.3557 24.9996 40.6329 25.0599 40.9047 25.138C41.0264 25.1729 41.1459 25.2204 41.2601 25.2748C42.0984 25.674 41.9956 26.7427 41.3703 27.1578C41.1357 27.3136 40.8834 27.4135 40.6062 27.4543C39.9436 27.552 39.3073 27.4693 38.7052 27.172C38.6358 27.1377 38.5717 27.0924 38.5073 27.0491C38.4789 27.03 38.4558 27.0032 38.4185 26.9691C38.5092 26.7685 38.5997 26.5685 38.6971 26.3531C39.0174 26.583 39.3537 26.7238 39.7204 26.7828C40.0874 26.8419 40.4544 26.8601 40.8139 26.6734Z" fill="white"/>
  <path d="M93.7259 24.2566C94.2146 24.4552 94.5375 24.784 94.6843 25.2726C94.7593 25.5224 94.7799 25.7756 94.7459 26.0556C93.9004 26.0556 93.0596 26.0556 92.2006 26.0556C92.237 26.3079 92.3593 26.479 92.5433 26.6087C92.9451 26.893 93.5593 26.8861 93.9604 26.5978C94.0117 26.5611 94.0607 26.5216 94.1278 26.4703C94.2659 26.6219 94.4009 26.7704 94.547 26.9318C94.4151 27.1138 94.2328 27.2306 94.0306 27.313C93.4433 27.5535 92.8504 27.542 92.2828 27.2671C91.7199 26.9946 91.4412 26.5187 91.4025 25.9075C91.3812 25.5734 91.4428 25.2527 91.6157 24.9612C91.9141 24.4568 92.372 24.2027 92.9562 24.1623C93.2112 24.1446 93.467 24.1568 93.7259 24.2566ZM93.9241 25.2755C93.677 24.7763 93.2341 24.7311 92.8346 24.8136C92.4714 24.8887 92.2141 25.2051 92.2125 25.5337C92.8046 25.5337 93.3959 25.5337 94.0125 25.5337C93.9849 25.4451 93.962 25.3746 93.9241 25.2755Z" fill="white"/>
  <path d="M51.3762 25.0415C51.5218 25.3688 51.5687 25.6945 51.5266 26.063C51.098 26.063 50.6748 26.063 50.2517 26.063C49.8335 26.063 49.4154 26.063 48.9964 26.063C49.0242 26.3877 49.2923 26.6776 49.6429 26.7659C50.1068 26.8827 50.5271 26.8034 50.9038 26.4656C51.0417 26.6189 51.1758 26.7678 51.3235 26.9318C51.1709 27.1291 50.9743 27.2643 50.7478 27.3435C50.1842 27.5408 49.6258 27.5234 49.0757 27.2755C48.4214 26.9805 48.0998 26.2514 48.1938 25.594C48.2676 25.0782 48.4968 24.6685 48.9523 24.3969C49.6873 23.9587 50.9082 24.0752 51.3762 25.0415ZM49.4356 24.8804C49.1685 25.0195 49.0114 25.231 48.9753 25.5336C49.5826 25.5336 50.1733 25.5336 50.7871 25.5336C50.7648 25.4516 50.7549 25.3835 50.7284 25.3221C50.5397 24.8848 50.0644 24.6385 49.4356 24.8804Z" fill="white"/>
  <path d="M62.5332 26.0631C62.0435 26.0631 61.5752 26.0631 61.0848 26.0631C61.1313 26.3354 61.2807 26.5186 61.4976 26.6515C61.8931 26.8939 62.465 26.869 62.8433 26.5995C62.9 26.5591 62.9544 26.5156 63.0186 26.4669C63.1567 26.6224 63.2904 26.7731 63.4297 26.9301C63.2771 27.1365 63.0762 27.2677 62.8486 27.346C62.221 27.5616 61.6102 27.5222 61.0291 27.1882C60.7081 27.0037 60.4995 26.7251 60.3837 26.3855C60.2105 25.8773 60.2565 25.3806 60.5334 24.9164C60.7647 24.5284 61.1178 24.2968 61.5631 24.2039C62.0223 24.108 62.4675 24.1416 62.8777 24.3831C63.3822 24.6803 63.6093 25.1407 63.6479 25.7033C63.6555 25.8134 63.649 25.9244 63.649 26.0631C63.2734 26.0631 62.9139 26.0631 62.5332 26.0631ZM62.1708 25.5459C62.4035 25.5459 62.6363 25.5459 62.8685 25.5459C62.8713 25.0867 62.4541 24.7673 61.9034 24.789C61.4579 24.8065 61.0767 25.164 61.108 25.5459C61.4475 25.5459 61.7878 25.5459 62.1708 25.5459Z" fill="white"/>
  <path d="M81.3852 26.7122C81.2265 26.4557 81.142 26.1868 81.1333 25.907C81.1112 25.1837 81.4523 24.4538 82.3357 24.2204C82.8141 24.0939 83.2925 24.1242 83.7307 24.386C84.2257 24.6816 84.4515 25.1347 84.4949 25.6878C84.5036 25.8042 84.4957 25.9219 84.4957 26.0569C83.6344 26.0569 82.7928 26.0569 81.9291 26.0569C81.9923 26.3768 82.1699 26.5895 82.4399 26.7029C82.9546 26.9186 83.4354 26.8401 83.8649 26.4652C84.0046 26.6233 84.1381 26.7743 84.2691 26.9228C83.7741 27.6597 82.0278 27.7194 81.3852 26.7122ZM83.5365 25.0869C83.2783 24.7452 82.7865 24.7321 82.492 24.8371C82.1675 24.9532 81.9804 25.1873 81.9244 25.5351C82.5346 25.5351 83.126 25.5351 83.7212 25.5351C83.737 25.3588 83.6517 25.2323 83.5365 25.0869Z" fill="white"/>
  <path d="M101.591 26.092C101.638 26.4353 101.954 26.7457 102.416 26.8028C102.8 26.8502 103.149 26.776 103.44 26.5086C103.455 26.4954 103.477 26.49 103.509 26.474C103.639 26.6177 103.768 26.7618 103.916 26.9254C103.863 26.9832 103.819 27.0434 103.763 27.0896C103.352 27.4316 102.864 27.5137 102.349 27.4596C102.148 27.4385 101.944 27.3853 101.758 27.3073C101.111 27.0359 100.789 26.5345 100.779 25.8509C100.769 25.1583 101.053 24.6099 101.709 24.3153C102.496 23.9621 103.567 24.1525 103.987 25.0748C104.127 25.3799 104.16 25.7024 104.122 26.063C104.045 26.063 103.97 26.063 103.895 26.063C103.207 26.063 102.519 26.0627 101.831 26.0636C101.753 26.0637 101.675 26.0712 101.591 26.092ZM102.687 24.7979C102.581 24.7951 102.476 24.7861 102.37 24.7908C101.996 24.8077 101.761 25.0173 101.614 25.3384C101.588 25.3966 101.587 25.4658 101.573 25.5315C102.187 25.5315 102.777 25.5315 103.383 25.5315C103.305 25.146 103.091 24.9079 102.687 24.7979Z" fill="white"/>
  <path d="M75.3815 24.445C75.7015 24.6861 75.8118 25.0193 75.8218 25.3737C75.8402 26.0375 75.8255 26.7021 75.8239 27.3664C75.8239 27.3792 75.8154 27.3919 75.8058 27.4193C75.5739 27.4193 75.3367 27.4193 75.0862 27.4193C75.0782 27.3244 75.0704 27.2322 75.0613 27.1248C74.6016 27.515 74.0881 27.5477 73.5534 27.3965C73.1071 27.2704 72.8548 26.9239 72.8394 26.5096C72.827 26.1734 73.0186 25.7974 73.4336 25.655C73.6178 25.5919 73.8189 25.5625 74.0146 25.5494C74.2763 25.5319 74.54 25.545 74.8029 25.545C74.8724 25.545 74.942 25.545 75.0064 25.545C75.1132 25.0979 74.7587 24.8254 74.3431 24.8058C73.9492 24.7871 73.5834 24.8762 73.2437 25.1245C73.1409 24.9379 73.0412 24.7568 72.9385 24.5706C73.1012 24.4243 73.2898 24.3495 73.4852 24.285C73.9258 24.1398 74.3737 24.1231 74.8281 24.2031C75.0273 24.2382 75.2059 24.32 75.3815 24.445ZM74.869 26.6779C75.0591 26.5047 75.0466 26.2877 75.0178 26.0562C74.7023 26.0562 74.3989 26.0512 74.0959 26.0594C74.0068 26.0618 73.9162 26.0948 73.8311 26.1264C73.709 26.1718 73.643 26.266 73.6216 26.3935C73.5871 26.599 73.6888 26.7795 73.902 26.8498C74.2405 26.9615 74.5569 26.9127 74.869 26.6779Z" fill="white"/>
  <path d="M53.2708 24.5035C53.7358 24.1323 54.253 24.082 54.7914 24.2215C55.3097 24.3559 55.6446 24.7573 55.666 25.3088C55.693 26.0065 55.6725 26.706 55.6725 27.4194C55.4212 27.4194 55.1775 27.4194 54.9089 27.4194C54.9089 27.3383 54.9094 27.2635 54.9088 27.1887C54.9044 26.6575 54.9097 26.1261 54.8922 25.5953C54.8759 25.1015 54.6196 24.8512 54.1484 24.8332C53.6793 24.8153 53.3139 25.1048 53.249 25.5502C53.236 25.6397 53.234 25.7312 53.2337 25.822C53.2323 26.2834 53.2334 26.7449 53.2326 27.2065C53.2325 27.2747 53.2269 27.343 53.2234 27.4221C52.9649 27.4221 52.7189 27.4221 52.4721 27.4221C52.4273 27.28 52.4111 24.5772 52.4553 24.2164C52.6904 24.2164 52.9276 24.2164 53.1918 24.2164C53.1918 24.3077 53.1904 24.3962 53.1924 24.4847C53.1935 24.5342 53.2182 24.5436 53.2708 24.5035Z" fill="white"/>
  <path d="M44.8198 26.6266C44.926 26.5526 45.0196 26.4879 45.1131 26.4233C45.0999 26.4053 45.0867 26.3873 45.0736 26.3693C45.1712 26.4223 45.2699 26.4736 45.3661 26.529C45.4634 26.5849 45.5581 26.6451 45.6597 26.707C45.5161 27.0053 45.2884 27.2084 44.9904 27.3267C44.3712 27.5726 43.7656 27.5291 43.2026 27.1757C42.7408 26.8859 42.5131 26.452 42.4877 25.912C42.4713 25.5616 42.5231 25.2276 42.7181 24.9293C43.0369 24.4418 43.5071 24.2029 44.0848 24.1628C44.4732 24.1358 44.849 24.1846 45.1883 24.3951C45.3911 24.5209 45.5476 24.686 45.6631 24.9178C45.4664 25.0309 45.273 25.142 45.0936 25.2451C44.9996 25.1598 44.9222 25.0787 44.8339 25.0114C44.5179 24.7707 44.1681 24.7437 43.8143 24.9036C43.4605 25.0636 43.2912 25.3587 43.272 25.7379C43.2582 26.0106 43.3076 26.266 43.4952 26.4803C43.7761 26.8013 44.2705 26.9023 44.6586 26.7174C44.7095 26.6932 44.7577 26.6632 44.8198 26.6266Z" fill="white"/>
  <path d="M58.7922 26.7056C58.9321 26.5985 59.058 26.4998 59.2113 26.3797C59.3784 26.4752 59.5711 26.5853 59.7726 26.7004C59.6293 27.0255 59.3792 27.2262 59.0685 27.3429C58.4537 27.5738 57.8523 27.5204 57.3004 27.1662C56.8421 26.872 56.6182 26.4345 56.5992 25.8947C56.5895 25.6182 56.6234 25.3514 56.7463 25.0999C57.0395 24.4999 57.5459 24.2145 58.2007 24.1628C58.605 24.1309 58.9951 24.1892 59.3393 24.4202C59.5222 24.543 59.6782 24.6933 59.7748 24.9199C59.5795 25.0317 59.3861 25.1425 59.1851 25.2577C59.0166 25.0211 58.803 24.8765 58.5215 24.8259C58.0292 24.7374 57.5726 25.0414 57.4475 25.4172C57.3413 25.7365 57.3502 26.052 57.5156 26.3483C57.752 26.7719 58.3336 26.9282 58.7922 26.7056Z" fill="white"/>
  <path d="M98.5187 26.7529C98.5029 26.6186 98.4816 26.5014 98.48 26.3839C98.4761 25.9435 98.4784 25.503 98.4784 25.0626C98.4784 24.994 98.4784 24.9253 98.4784 24.8397C98.2953 24.8397 98.1279 24.8397 97.9424 24.8397C97.9424 24.6318 97.9424 24.4405 97.9424 24.2239C98.1098 24.2239 98.2826 24.2239 98.4753 24.2239C98.4753 23.9725 98.4753 23.745 98.4753 23.5037C98.7382 23.5037 98.9821 23.5037 99.245 23.5037C99.245 23.7355 99.245 23.9629 99.245 24.2087C99.545 24.2087 99.8261 24.2087 100.117 24.2087C100.165 24.4168 100.132 24.6096 100.143 24.8263C99.845 24.8263 99.5576 24.8263 99.2592 24.8263C99.2545 24.9113 99.2474 24.9722 99.2474 25.0331C99.2466 25.4106 99.2442 25.7882 99.249 26.1657C99.2498 26.2832 99.2624 26.402 99.2837 26.5178C99.3176 26.706 99.44 26.8037 99.6374 26.8187C99.8095 26.8319 99.9745 26.8134 100.138 26.6999C100.216 26.8926 100.286 27.0646 100.357 27.2399C100.189 27.4052 99.9753 27.4375 99.7684 27.468C99.5269 27.5036 99.2876 27.4686 99.0595 27.3782C98.7761 27.2658 98.604 27.0565 98.5187 26.7529Z" fill="white"/>
  <path d="M96.0442 23.4893C96.2203 23.4893 96.3758 23.4893 96.5511 23.4893C96.5511 23.7267 96.5511 23.9536 96.5511 24.2018C96.8479 24.2358 97.1298 24.201 97.425 24.2243C97.425 24.4191 97.425 24.6103 97.425 24.825C97.1479 24.825 96.8676 24.825 96.5763 24.825C96.57 24.9008 96.5613 24.9544 96.5613 25.0082C96.5605 25.4414 96.5724 25.8749 96.5574 26.3076C96.5408 26.802 96.8692 26.8977 97.2829 26.78C97.3295 26.7668 97.3713 26.7383 97.4345 26.7076C97.4748 26.802 97.5142 26.8895 97.549 26.9786C97.5821 27.0628 97.6113 27.1488 97.6437 27.2395C97.4866 27.4099 97.2695 27.4352 97.065 27.4672C96.8242 27.5048 96.5819 27.4737 96.3569 27.3791C95.959 27.2119 95.7876 26.8914 95.7805 26.4825C95.7719 26.0077 95.779 25.5325 95.779 25.0574C95.779 24.9892 95.779 24.921 95.779 24.8356C95.5895 24.8356 95.4221 24.8356 95.2397 24.8356C95.2397 24.6264 95.2397 24.4351 95.2397 24.2186C95.4119 24.2186 95.5855 24.2186 95.7766 24.2186C95.7766 23.967 95.7766 23.7394 95.7766 23.4893C95.8713 23.4893 95.9471 23.4893 96.0442 23.4893Z" fill="white"/>
  <path d="M86.4072 3.07283C86.7072 3.69578 86.258 4.43802 85.5222 4.43978C85.0524 4.44091 84.6332 4.07281 84.574 3.6163C84.5101 3.13319 84.8093 2.69412 85.2766 2.56105C85.733 2.43124 86.2295 2.68902 86.4072 3.07283Z" fill="white"/>
  <path d="M46.6785 24.2029C46.8829 24.2029 47.0666 24.2029 47.2643 24.2029C47.2643 25.2798 47.2643 26.3443 47.2643 27.4212C47.016 27.4212 46.7712 27.4212 46.5117 27.4212C46.5117 26.3535 46.5117 25.2894 46.5117 24.2102C46.5624 24.2077 46.61 24.2052 46.6785 24.2029Z" fill="white"/>
  <path d="M47.3772 23.1082C47.3971 23.4956 47.1763 23.7061 46.8106 23.6698C46.5415 23.643 46.3399 23.3928 46.3866 23.1435C46.4355 22.8827 46.7323 22.6953 46.9984 22.7591C47.1835 22.8036 47.3159 22.9069 47.3772 23.1082Z" fill="white"/>
  <path d="M9.18335 27.3916C8.67382 27.5748 8.21488 27.5082 7.81074 27.1786C7.53218 26.9513 7.37638 26.6506 7.36146 26.288C7.35973 26.2461 7.36119 26.2041 7.36119 26.1622C7.36118 18.7313 7.36468 11.3005 7.35498 3.86971C7.35414 3.22952 7.77576 2.60143 8.57214 2.53221C9.2949 2.46938 9.91653 2.99409 9.97377 3.67673C9.99587 3.94024 10.0028 4.20565 10.0029 4.47019C10.0044 11.6494 10.0043 18.8285 10.0033 26.0077C10.0032 26.3539 9.94985 26.6868 9.72737 26.9751C9.5859 27.1584 9.40779 27.2895 9.18335 27.3916Z" fill="white"/>
  <path d="M10.8568 19.5104C10.8568 14.9862 10.8609 10.4829 10.8511 5.97955C10.85 5.47245 11.203 4.84874 11.8818 4.71407C12.7668 4.53849 13.4195 5.16949 13.4703 5.83731C13.4872 6.05939 13.4987 6.28247 13.4987 6.5051C13.5003 12.2811 13.5002 18.0571 13.499 23.8331C13.499 24.0844 13.4775 24.3341 13.3719 24.569C13.1387 25.0884 12.5878 25.4068 12.0068 25.3317C11.377 25.2503 10.9736 24.8181 10.8677 24.2716C10.8532 24.197 10.8572 24.1185 10.8572 24.0418C10.8566 22.5383 10.8568 21.0349 10.8568 19.5104Z" fill="white"/>
  <path d="M6.50905 9.81813C6.50905 13.9228 6.51044 18.0064 6.5052 22.09C6.50492 22.31 6.47681 22.538 6.41314 22.7481C6.26842 23.2254 5.77289 23.6692 5.05866 23.6128C4.4808 23.5671 4.03647 23.1889 3.88604 22.6147C3.86514 22.5349 3.86628 22.4482 3.86627 22.3648C3.86541 17.463 3.8682 12.5612 3.86231 7.65944C3.8615 6.99537 4.47372 6.41347 5.142 6.40513C5.75036 6.39755 6.31513 6.8092 6.44647 7.37173C6.48569 7.53973 6.50445 7.71564 6.50632 7.88821C6.51319 8.52442 6.50905 9.16081 6.50905 9.81813Z" fill="white"/>
  <path d="M21.3444 12.0418C21.3444 11.1542 21.3556 10.2874 21.3405 9.4211C21.3309 8.86247 21.7395 8.2327 22.4532 8.1401C23.2504 8.0366 23.7662 8.51699 23.9327 9.09007C23.9747 9.23494 23.9849 9.39291 23.985 9.54489C23.9878 13.193 23.9877 16.8411 23.9865 20.4893C23.9863 20.8946 23.8679 21.2537 23.561 21.5451C23.1767 21.91 22.6128 21.9985 22.1607 21.8076C21.6478 21.591 21.3482 21.199 21.3471 20.6379C21.3415 17.7796 21.3444 14.9212 21.3444 12.0418Z" fill="white"/>
  <path d="M14.6431 8.58897C14.9475 8.25754 15.3102 8.1137 15.752 8.12989C16.3409 8.15152 16.9097 8.65173 16.9648 9.22773C16.9847 9.43544 16.9942 9.64481 16.9943 9.85339C16.996 13.3766 16.9959 16.8999 16.9949 20.4232C16.9949 20.7041 16.9613 20.9796 16.8169 21.2305C16.5246 21.7381 16.0164 21.9629 15.4738 21.8859C14.8023 21.7908 14.4553 21.3141 14.3682 20.8439C14.3518 20.7555 14.3532 20.6631 14.3532 20.5725C14.3525 16.8675 14.354 13.1625 14.3501 9.45746C14.3498 9.13615 14.4345 8.85289 14.6431 8.58897Z" fill="white"/>
  <path d="M20.4915 17.5804C20.4821 17.9357 20.4837 18.2707 20.4608 18.6041C20.4248 19.1293 20.0095 19.5981 19.4383 19.7215C18.5586 19.9115 17.8338 19.182 17.8409 18.4275C17.8621 16.1495 17.85 13.8712 17.8475 11.5931C17.8469 11.0506 18.0889 10.6469 18.5737 10.41C19.0856 10.1599 19.5833 10.236 20.0259 10.5876C20.2652 10.7777 20.4056 11.0386 20.4558 11.3372C20.4823 11.4941 20.4899 11.6557 20.49 11.8152C20.4922 13.73 20.4915 15.6447 20.4915 17.5804Z" fill="white"/>
  <path d="M24.8401 16.6951C24.8401 15.5495 24.8499 14.4243 24.836 13.2993C24.8287 12.7111 25.2655 12.0992 25.9848 12.0012C26.6346 11.9127 27.2476 12.3158 27.4212 12.9504C27.4575 13.0833 27.4805 13.2241 27.4811 13.3613C27.4858 14.4586 27.4908 15.5558 27.4808 16.6529C27.4756 17.2092 27.2471 17.6489 26.7163 17.9053C26.0456 18.2294 25.2113 17.9138 24.9308 17.2261C24.8639 17.0619 24.8288 16.8927 24.8401 16.6951Z" fill="white"/>
  </g>
  <defs>
  <clipPath id="clip0_164_19753">
  <rect width="106.579" height="30" fill="white" transform="translate(0.333984)"/>
  </clipPath>
  </defs>
  </svg>
  