<svg width="146" height="24" viewBox="0 0 146 24" fill="none" xmlns="http://www.w3.org/2000/svg">
  <path d="M140.752 4.63636C140.752 6.49091 140.716 8 140.698 8C140.661 8 140.279 7.67273 139.861 7.29091C137.843 5.43636 134.461 5.56364 132.443 7.58182C130.079 9.94545 129.988 14.6 132.225 17.1455C133.316 18.3818 134.679 19 136.388 19C137.97 19 138.825 18.6545 139.879 17.6C140.261 17.2182 140.607 16.9091 140.661 16.9091C140.716 16.9091 140.752 17.3091 140.752 17.8182V18.7273H142.17H143.57L143.516 10L143.479 1.27273H142.116H140.752V4.63636ZM138.479 8.70909C139.97 9.38182 140.879 11.0727 140.698 12.8727C140.498 15.1091 139.061 16.5455 137.025 16.5455C134.916 16.5455 133.479 14.8545 133.479 12.3636C133.479 9.49091 136.043 7.6 138.479 8.70909Z" fill="white"/>
  <path d="M16.0244 2.818V4.18164H17.5699H19.1153V2.818V1.45437H17.5699H16.0244V2.818Z" fill="white"/>
  <path d="M22.3883 4.45446V6.18174H21.5701H20.752V7.34537V8.52719L21.5338 8.58174L22.2974 8.63628L22.3883 12.8181C22.4974 17.5454 22.552 17.7999 23.9156 18.5636C24.8247 19.0908 26.8247 19.1454 27.8974 18.6726C28.5338 18.3999 28.5701 18.3454 28.5701 17.509C28.5701 16.2726 28.461 16.1817 27.4429 16.3999C26.3883 16.6545 25.6065 16.3636 25.3156 15.6545C25.1883 15.3454 25.1338 13.9999 25.152 11.909L25.2065 8.63628L26.8974 8.58174L28.5701 8.52719V7.36355V6.18174H26.8429H25.1156V4.45446V2.72719H23.752H22.3883V4.45446Z" fill="white"/>
  <path d="M109.116 4.45469V6.18196H108.407H107.698L107.625 7.36378L107.57 8.5456H108.352H109.116V11.982C109.116 16.891 109.388 17.9274 110.879 18.6547C111.716 19.0365 113.625 19.091 114.625 18.7456L115.298 18.5092V17.3456V16.182L114.716 16.3274C113.57 16.582 112.734 16.4729 112.37 16.0183C112.061 15.6365 112.025 15.2365 112.025 12.0729V8.5456H113.716H115.388L115.334 7.36378L115.261 6.18196H113.643H112.025V4.45469V2.72741H110.57H109.116V4.45469Z" fill="white"/>
  <path d="M34.6062 5.9271C33.3152 6.27255 32.6789 6.618 31.7152 7.50891C28.1152 10.818 29.0243 16.618 33.4607 18.7089C34.3516 19.1271 34.6971 19.1816 36.388 19.1816C38.0789 19.1816 38.4243 19.1271 39.3334 18.6907C41.6607 17.5998 43.0062 15.618 43.2971 12.8726C43.5334 10.4726 44.0971 9.43619 45.5698 8.67255C46.988 7.94528 49.0607 8.30891 50.1516 9.49073C50.788 10.1635 51.2971 11.4725 51.2971 12.4362C51.2971 14.9635 49.6971 16.7271 47.388 16.7271C46.2425 16.7271 45.4971 16.418 44.6243 15.5816C44.2243 15.1998 44.0243 15.1089 44.0243 15.2907C44.0243 15.4362 43.7334 16.0544 43.3698 16.6362C42.6243 17.8907 42.6243 17.8544 44.388 18.7089C45.2789 19.1271 45.6062 19.1816 47.2971 19.1816C49.0971 19.1816 49.2971 19.1453 50.4062 18.5998C51.8425 17.8907 52.9516 16.7453 53.6243 15.3089C54.0607 14.3998 54.1152 14.0362 54.1152 12.4544C54.1152 10.8726 54.0607 10.5089 53.6425 9.63619C52.8971 8.09073 52.0062 7.18164 50.4425 6.418C49.1516 5.78164 48.9698 5.74528 47.4062 5.74528C45.1334 5.74528 43.9516 6.218 42.4607 7.70891C41.1516 9.018 40.6425 10.1998 40.4062 12.4362C40.188 14.6362 39.4607 15.818 37.988 16.4544C37.2062 16.7635 35.7334 16.818 34.988 16.5271C34.2971 16.2725 33.3516 15.3453 32.8789 14.4544C32.3334 13.4362 32.3516 11.4907 32.8971 10.418C34.0971 8.10891 37.1334 7.56346 39.0607 9.30891L39.4425 9.67255L40.0971 8.49073C40.4607 7.85437 40.7516 7.27255 40.7516 7.218C40.7516 6.96346 39.0062 6.10891 38.0425 5.89073C36.7698 5.58164 35.8243 5.58164 34.6062 5.9271Z" fill="white"/>
  <path d="M5.06088 6.25459C3.96997 6.65459 3.00633 7.38186 2.42451 8.2364C0.751784 10.6364 1.02451 14.2182 2.98815 16.1455C4.15178 17.2728 5.27906 17.7273 7.02451 17.7273C8.29724 17.7273 8.60633 17.6546 9.44269 17.1819C9.98815 16.8909 10.6063 16.4182 10.8427 16.1455C11.0791 15.8728 11.3154 15.6364 11.37 15.6364C11.57 15.6364 11.4791 17.0364 11.2063 17.9455C10.8972 19 10.0791 19.8364 9.00633 20.1819C7.84269 20.5637 5.51542 20.3273 4.11542 19.6728L2.9336 19.1091L2.47906 20C2.22451 20.4909 2.02451 20.9819 2.02451 21.0909C2.02451 21.4 3.84269 22.1637 5.3336 22.4728C6.9336 22.8182 9.11542 22.7273 10.5336 22.2546C11.8245 21.8364 13.1154 20.6546 13.6791 19.4182C14.1154 18.4728 14.1154 18.3273 14.17 12.3091L14.2245 6.18186H12.8609H11.4791V7.09095C11.4791 7.58186 11.4427 8.00004 11.4063 8.00004C11.37 8.00004 11.0609 7.72731 10.6972 7.40004C10.3518 7.05459 9.75178 6.6364 9.35178 6.4364C8.46088 6.00004 6.04269 5.89095 5.06088 6.25459ZM9.26088 8.6364C11.97 9.78186 12.2245 13.3273 9.69724 14.8546C7.86088 15.9819 5.24269 15.2182 4.46088 13.3273C3.91542 12.0364 4.29724 10.0909 5.24269 9.2364C6.16997 8.38186 8.00633 8.12731 9.26088 8.6364Z" fill="white"/>
  <path d="M60.4608 6.34548C60.0608 6.52729 59.4245 7.00002 59.0608 7.36366L58.3881 8.05457V7.12729V6.18184H56.9335H55.479V12.4546V18.7273H56.9335H58.3881V14.7637C58.3881 11.0182 58.4063 10.7637 58.8063 10C59.7699 8.10911 62.6063 8.0182 63.6063 9.85457C63.879 10.3637 63.9335 11.0364 63.9881 14.6L64.0608 18.7273H65.4063H66.7699L66.7154 13.8546C66.6608 9.29093 66.6426 8.96366 66.2608 8.27275C65.7699 7.34548 65.0245 6.63638 64.1699 6.29093C63.2426 5.89093 61.3881 5.92729 60.4608 6.34548Z" fill="white"/>
  <path d="M73.0064 6.54548C72.4791 6.83638 71.8973 7.30911 71.6791 7.58184L71.3155 8.09093L71.2973 7.12729V6.18184H69.8427H68.3882V12.4546V18.7273H69.8427H71.2973V14.6727C71.2973 10.8182 71.3155 10.6 71.7155 9.90911C72.7336 8.09093 75.5882 8.07275 76.4427 9.87275C76.6973 10.4 76.7518 11.1637 76.7518 14.6182V18.7273H78.2064H79.6609V14.3091C79.6609 9.34548 79.5155 8.47275 78.5155 7.32729C77.6973 6.40002 76.7336 6.00002 75.2064 6.00002C74.1336 6.00002 73.7882 6.09093 73.0064 6.54548Z" fill="white"/>
  <path d="M85.2429 6.25472C81.0975 7.74563 79.7702 13.582 82.7884 17.0184C85.0611 19.6002 89.6793 19.782 92.0248 17.3638L92.6429 16.7093L91.8429 16.0184L91.0248 15.3274L90.4793 15.7456C88.552 17.2184 85.8611 17.0184 84.6793 15.3093C84.4248 14.9274 84.152 14.3638 84.0975 14.0365L83.9884 13.4547H88.6429H93.2975V12.7638C93.2975 11.8184 92.8429 9.78199 92.4793 9.0729C91.8975 7.96381 90.5884 6.76381 89.552 6.36381C88.3884 5.92744 86.2975 5.89108 85.2429 6.25472ZM88.7702 8.65472C89.4429 9.00017 90.1884 10.1093 90.3339 10.982L90.4429 11.6365H87.2248C84.1339 11.6365 84.0248 11.6184 84.0248 11.2729C84.0248 10.7274 84.6611 9.54563 85.2429 9.00017C86.152 8.16381 87.5702 8.01835 88.7702 8.65472Z" fill="white"/>
  <path d="M98.8064 6.38182C97.5155 6.87273 95.9882 8.30909 95.3519 9.6C94.8973 10.5273 94.8428 10.8182 94.8428 12.5455C94.8428 14.2727 94.8973 14.5455 95.3519 15.4545C96.061 16.8182 97.1337 17.8727 98.461 18.4909C99.4428 18.9455 99.77 19 101.297 19C103.279 18.9818 104.188 18.6545 105.516 17.4545L106.297 16.7455L105.461 15.9091L104.625 15.0545L103.77 15.7091C103.297 16.0727 102.679 16.4182 102.425 16.4727C102.152 16.5273 101.788 16.6 101.606 16.6364C100.988 16.7636 99.461 16.2364 98.9155 15.7091C97.6791 14.5273 97.2428 12.8909 97.7337 11.2C98.2791 9.32727 100.043 8.12727 101.788 8.45455C102.516 8.58182 103.825 9.25455 104.188 9.69091C104.37 9.92727 104.552 9.81818 105.297 9.01818L106.206 8.09091L105.461 7.41818C105.061 7.05454 104.279 6.58182 103.734 6.36364C102.388 5.87273 100.134 5.87273 98.8064 6.38182Z" fill="white"/>
  <path d="M121.189 6.20008C120.298 6.45463 118.916 7.45463 118.261 8.32735C117.552 9.27281 116.934 11.1637 116.934 12.4364C116.934 16.491 119.952 19.3455 123.934 19.0364C125.498 18.9274 126.916 18.3092 127.825 17.3819L128.443 16.7455L127.643 16.0183L126.843 15.3092L126.243 15.7455C124.898 16.7819 123.134 17.0183 121.716 16.3819C120.88 16.0001 120.098 14.9819 119.916 14.0364L119.807 13.4546H124.352C128.389 13.4546 128.916 13.4183 129.007 13.1637C129.17 12.7092 128.952 11.1455 128.534 9.81826C128.043 8.30917 126.589 6.76372 125.225 6.30917C124.261 5.9819 122.134 5.92735 121.189 6.20008ZM124.716 8.76372C125.116 9.00008 125.498 9.49099 125.77 10.0728C126.534 11.7092 126.661 11.6364 123.025 11.6364C119.88 11.6364 119.843 11.6364 119.843 11.2364C119.843 11.0183 120.007 10.491 120.225 10.0546C121.061 8.32735 123.08 7.74553 124.716 8.76372Z" fill="white"/>
  <path d="M16.2065 12.4546V18.7273H17.6611H19.1156L19.0793 12.4909L19.0247 6.27275L17.6247 6.2182L16.2065 6.16366V12.4546Z" fill="white"/>
  </svg>
  