<svg width="177" height="30" viewBox="0 0 177 30" fill="none" xmlns="http://www.w3.org/2000/svg">
  <g clip-path="url(#clip0_219_655)">
  <path d="M20.6885 23.2668C20.6858 23.1849 20.6807 23.103 20.6807 23.0211C20.6803 15.5688 20.6811 8.11658 20.6763 0.664322C20.6761 0.447971 20.7147 0.344407 20.9591 0.317947C21.4278 0.267193 21.8917 0.173112 22.3675 0.0758471C22.707 0.0546874 23.0366 0.0546874 23.3919 0.0546875C23.6295 0.0973013 23.8414 0.139915 24.0733 0.186529C24.0733 9.02995 24.0733 17.8749 24.051 26.7416C23.6419 26.2537 23.2831 25.7194 22.8611 25.2408C22.402 24.72 21.8939 24.2406 21.3875 23.7641C21.1812 23.57 20.9231 23.4309 20.6885 23.2668Z" fill="white"/>
  <path d="M176.209 16.3976C173.009 16.4233 169.809 16.4233 166.533 16.4233C166.62 16.7929 166.682 17.1439 166.787 17.4811C167.009 18.1944 167.426 18.7864 167.982 19.2814C168.509 19.7496 169.125 20.0563 169.809 20.1909C170.254 20.2787 170.721 20.327 171.173 20.2999C172.424 20.2247 173.581 19.867 174.481 18.9352C174.676 18.7332 174.815 18.6798 175.023 18.8864C175.143 19.0057 175.298 19.0921 175.407 19.2193C175.453 19.2725 175.46 19.4267 175.417 19.4783C174.555 20.5084 173.422 21.0721 172.12 21.2853C171.528 21.3822 170.914 21.4309 170.317 21.3915C169.211 21.3185 168.207 20.9289 167.331 20.2234C166.483 19.5415 165.933 18.6719 165.647 17.6358C165.383 16.6833 165.347 15.7198 165.525 14.7394C165.688 13.8395 166.038 13.0253 166.606 12.3275C167.344 11.4206 168.287 10.8016 169.438 10.5046C170.149 10.3211 170.872 10.2932 171.584 10.3591C172.982 10.4884 174.226 11.003 175.146 12.1115C175.641 12.7085 175.955 13.4095 176.099 14.1782C176.128 14.3358 176.144 14.4959 176.188 14.6631C176.209 15.2383 176.209 15.8051 176.209 16.3976ZM169.316 11.6278C169.261 11.6564 169.209 11.6923 169.151 11.7125C168.592 11.9076 168.13 12.2575 167.733 12.6776C167.325 13.1095 167.006 13.6181 166.821 14.187C166.692 14.5833 166.624 14.9994 166.525 15.4233C169.454 15.4233 172.304 15.4233 175.19 15.4233C175.164 15.1665 175.145 14.9265 175.113 14.6883C175.009 13.9069 174.713 13.2026 174.18 12.6223C173.467 11.8467 172.534 11.4912 171.512 11.3959C170.788 11.3284 170.058 11.3676 169.316 11.6278Z" fill="white"/>
  <path d="M0.53418 23.6754C0.716865 23.1283 0.883498 22.6005 1.08549 22.0866C1.54495 20.9177 1.99663 19.7445 2.49949 18.5941C2.90279 17.6714 3.37294 16.7778 3.82166 15.8753C3.95552 15.6061 4.11719 15.3507 4.31163 15.1033C4.31163 17.8081 4.31163 20.513 4.28951 23.2432C3.0461 24.158 2.04252 25.2554 1.19039 26.4964C0.96703 26.8217 0.752673 27.1532 0.53418 27.4819C0.53418 26.2216 0.53418 24.9613 0.53418 23.6754Z" fill="white"/>
  <path d="M0.53418 27.5075C0.752672 27.1532 0.96703 26.8217 1.19039 26.4964C2.04252 25.2554 3.0461 24.158 4.28628 23.2688C4.30481 23.6679 4.30445 24.0667 4.27888 24.4945C3.93086 24.7842 3.59072 25.0264 3.28853 25.3092C2.39995 26.1408 1.61017 27.0576 0.966969 28.0957C0.83064 28.3157 0.678848 28.5261 0.53418 28.741C0.53418 28.3384 0.53418 27.9358 0.53418 27.5075Z" fill="white"/>
  <path d="M4.29395 25.1194C4.3653 25.5285 4.29052 25.8388 3.91286 26.1204C2.79443 26.9545 1.9113 28.0196 1.12733 29.1667C0.93922 29.4419 0.776855 29.7347 0.595793 30.0371C0.570688 29.8349 0.552439 29.6151 0.550781 29.3605C1.31722 28.0242 2.23891 26.8584 3.35179 25.8495C3.64525 25.5834 3.97881 25.3615 4.29395 25.1194Z" fill="white"/>
  <path d="M4.29943 25.0951C3.9788 25.3614 3.64524 25.5833 3.35177 25.8494C2.2389 26.8584 1.31721 28.0241 0.55077 29.3343C0.53418 29.159 0.53418 28.975 0.53418 28.7659C0.678848 28.5259 0.83064 28.3155 0.966969 28.0955C1.61017 27.0574 2.39995 26.1406 3.28853 25.309C3.59072 25.0262 3.93086 24.784 4.27105 24.5181C4.29393 24.6989 4.29943 24.8849 4.29943 25.0951Z" fill="white"/>
  <path d="M64.3255 12.1125C65.0169 11.2298 65.9263 10.7358 66.9723 10.4548C67.6877 10.2626 68.4233 10.2195 69.1436 10.3061C70.2306 10.4367 71.22 10.8368 71.9719 11.6866C72.0181 11.7388 72.0509 11.8027 72.1194 11.9055C72.1194 9.94476 72.1194 8.03096 72.1194 6.09692C73.0233 6.09692 73.9031 6.09692 74.8028 6.09692C74.8028 11.1269 74.8028 16.1728 74.8028 21.2408C74.0098 21.2408 73.2186 21.2447 72.4277 21.233C72.3676 21.2321 72.2664 21.1261 72.257 21.0588C72.2031 20.6731 72.1712 20.2843 72.1356 19.9342C71.8293 20.2186 71.5403 20.5482 71.1928 20.7957C70.6156 21.2069 69.9549 21.395 69.2406 21.4726C68.3673 21.5673 67.5315 21.4514 66.7089 21.1988C66.0168 20.9863 65.4042 20.6252 64.8647 20.13C63.9752 19.3136 63.4496 18.3072 63.2796 17.1248C63.1966 16.5477 63.1412 15.9552 63.1743 15.3754C63.2417 14.193 63.5418 13.0726 64.3255 12.1125ZM68.0924 12.8886C67.2595 13.1048 66.6177 13.5666 66.2279 14.3475C65.8716 15.0613 65.7735 15.7992 65.9446 16.5906C66.1084 17.3487 66.4725 17.9553 67.0928 18.4128C67.8051 18.9382 68.602 19.1054 69.4633 18.9385C70.2566 18.7848 70.9089 18.3996 71.378 17.7206C71.801 17.1084 71.9584 16.4341 71.9225 15.7005C71.8744 14.7154 71.4514 13.9329 70.655 13.3588C69.8936 12.8098 69.0378 12.7081 68.0924 12.8886Z" fill="white"/>
  <path d="M13.572 20.5856C13.5692 20.5493 13.5639 20.513 13.5638 20.4766C13.5451 15.1156 13.5262 9.75463 13.5142 4.39361C13.5139 4.2986 13.5706 4.16448 13.645 4.11418C14.6642 3.42544 15.6767 2.72509 16.7216 2.077C17.3393 1.69387 18.011 1.39789 18.7079 1.03711C18.7079 8.04215 18.7079 14.9728 18.6839 21.928C18.0878 21.7222 17.523 21.4714 16.9421 21.266C15.8527 20.8807 14.7288 20.647 13.572 20.5856Z" fill="white"/>
  <path d="M78.0675 12.1106C78.4658 11.7522 78.8194 11.3635 79.2407 11.0732C79.8864 10.6282 80.6279 10.3853 81.41 10.2943C81.8463 10.2435 82.2872 10.1757 82.7235 10.1905C84.0142 10.2344 85.2426 10.5253 86.2623 11.3683C87.0155 11.9908 87.5119 12.8149 87.7271 13.7608C87.8903 14.4783 87.9406 15.2238 88.0076 15.9598C88.0333 16.2422 87.9659 16.5331 87.9382 16.8519C85.19 16.8519 82.4227 16.8519 79.6281 16.8519C79.6765 17.319 79.8415 17.7013 80.1247 18.0264C80.7064 18.6944 81.4612 18.9729 82.3318 19.0615C83.1923 19.149 83.9884 18.9531 84.7646 18.6435C85.0793 18.518 85.3525 18.2885 85.6407 18.1089C86.1899 18.6583 86.7621 19.2307 87.3409 19.8098C86.6564 20.5214 85.7979 20.9879 84.8318 21.231C84.1892 21.3926 83.5258 21.518 82.8662 21.5516C82.2911 21.5809 81.7006 21.5004 81.1308 21.3938C80.3563 21.2488 79.6241 20.961 78.9771 20.4944C77.9483 19.7524 77.2912 18.7532 77.0208 17.5204C76.8973 16.9571 76.8024 16.373 76.8063 15.7991C76.8148 14.5258 77.1362 13.3292 77.9025 12.2824C77.9452 12.2242 78.0027 12.1768 78.0675 12.1106ZM84.2111 14.6167C84.5831 14.6167 84.9552 14.6167 85.3437 14.6167C85.2806 14.129 85.0951 13.724 84.7825 13.3865C84.2675 12.8307 83.5801 12.6494 82.8631 12.5981C82.0244 12.5381 81.2344 12.7336 80.558 13.2538C80.1184 13.5919 79.831 14.0462 79.6842 14.5847C79.7203 14.6009 79.7362 14.6144 79.7521 14.6144C81.2202 14.6158 82.6883 14.6163 84.2111 14.6167Z" fill="white"/>
  <path d="M45.7533 20.5833C45.7533 20.81 45.7533 21.0096 45.7533 21.225C44.8616 21.225 43.9819 21.225 43.0708 21.225C43.0708 21.1319 43.0708 21.0352 43.0708 20.9385C43.0708 19.1779 43.0671 17.4172 43.0725 15.6566C43.0748 14.8853 42.8829 14.1781 42.3849 13.582C42.0624 13.1961 41.6134 12.9804 41.1332 12.8731C40.5951 12.7529 40.0636 12.7974 39.538 13.0155C38.6632 13.3785 38.1677 14.0477 37.9331 14.9263C37.8467 15.25 37.8225 15.5979 37.8203 15.9351C37.8094 17.6044 37.8153 19.2738 37.8153 20.9432C37.8153 21.0329 37.8153 21.1225 37.8153 21.2265C36.9205 21.2265 36.0408 21.2265 35.147 21.2265C35.147 17.6632 35.147 14.1015 35.147 10.5112C35.9111 10.5112 36.6741 10.5076 37.4368 10.5189C37.4905 10.5197 37.5801 10.6255 37.589 10.6912C37.6405 11.0723 37.6729 11.456 37.7153 11.8747C38.0014 11.6527 38.2711 11.4352 38.5494 11.2293C39.1639 10.7748 39.845 10.5001 40.6098 10.3933C41.3735 10.2866 42.1108 10.3626 42.8194 10.6273C43.7907 10.99 44.5448 11.6221 45.0464 12.5495C45.5497 13.48 45.7645 14.4678 45.7566 15.5205C45.7441 17.199 45.7533 18.8775 45.7533 20.5833Z" fill="white"/>
  <path d="M6.2352 22.0097C6.23263 20.2772 6.22919 18.5446 6.22775 16.8121C6.22649 15.2983 6.24176 13.7843 6.21741 12.2709C6.21135 11.8944 6.42637 11.6631 6.6169 11.4195C7.36933 10.4575 8.11597 9.48815 8.9212 8.57108C9.69936 7.68484 10.5468 6.85945 11.3648 6.00822C11.3817 5.99063 11.4098 5.98383 11.4825 5.94629C11.4825 10.8297 11.4825 15.6824 11.4547 20.5593C10.3267 20.655 9.24994 20.8616 8.20913 21.2182C7.53938 21.4476 6.89239 21.7435 6.2352 22.0097Z" fill="white"/>
  <path d="M49.9005 21.3132C49.1444 21.0763 48.4894 20.7043 47.9107 20.1958C47.7357 20.042 47.5594 19.8898 47.3706 19.7255C47.8279 19.0636 48.2739 18.418 48.6956 17.8076C49.1427 18.1005 49.5339 18.4157 49.9737 18.6321C50.833 19.0549 51.7444 19.3336 52.7184 19.2643C53.2726 19.2249 53.7911 19.04 54.1337 18.5704C54.4342 18.1586 54.4411 17.4383 53.6116 17.1544C53.3138 17.0525 52.9913 17.0042 52.6761 16.9754C51.5346 16.8714 50.393 16.7692 49.3633 16.2019C48.3584 15.6483 47.7999 14.8202 47.7738 13.6404C47.741 12.163 48.665 11.1873 49.8571 10.6767C50.9251 10.2192 52.0541 10.1725 53.1837 10.2469C54.3165 10.3215 55.353 10.713 56.2615 11.4113C56.3478 11.4777 56.4316 11.5476 56.5395 11.6343C56.0175 12.2513 55.5279 12.83 55.039 13.4079C54.7133 13.2063 54.4089 12.975 54.0704 12.8164C53.1061 12.3646 52.1019 12.3729 51.0967 12.6595C50.715 12.7684 50.3735 13.2122 50.4158 13.5284C50.4701 13.9339 50.7044 14.2507 51.0927 14.3779C51.4589 14.4979 51.8472 14.5687 52.2314 14.6114C53.3325 14.7341 54.4489 14.787 55.4517 15.3317C56.4305 15.8634 56.9427 16.6896 56.9789 17.8121C56.9982 18.4089 56.9598 18.9906 56.6828 19.5329C56.2573 20.3656 55.5716 20.8972 54.7176 21.2419C53.6817 21.66 52.5948 21.6652 51.5114 21.6115C50.9768 21.585 50.4488 21.4265 49.9005 21.3132Z" fill="white"/>
  <path d="M32.7789 7.9927C32.7789 12.4161 32.7789 16.812 32.7789 21.2244C31.8151 21.2244 30.8624 21.2244 29.8936 21.2244C29.8936 16.1708 29.8936 11.1128 29.8936 6.03833C30.8414 6.03833 31.794 6.03833 32.7789 6.03833C32.7789 6.67746 32.7789 7.3214 32.7789 7.9927Z" fill="white"/>
  <path d="M97.2683 13.4628C97.2227 13.6068 97.1503 13.6388 97.0467 13.5466C96.4802 13.0428 95.8015 12.875 95.0679 12.9234C93.7803 13.0085 92.8037 13.7393 92.6739 15.1349C92.627 15.6386 92.6196 16.1471 92.6171 16.6535C92.6099 18.0859 92.6145 19.5184 92.6145 20.9508C92.6145 21.0398 92.6145 21.1287 92.6145 21.2292C91.7141 21.2292 90.8344 21.2292 89.9434 21.2292C89.9434 17.6572 89.9434 14.095 89.9434 10.5221C90.7802 10.5221 91.6059 10.5221 92.4257 10.5221C92.4902 10.9027 92.5527 11.2717 92.6202 11.6697C93.8319 9.67795 97.1577 9.95683 98.4074 11.3046C98.0298 12.0145 97.6501 12.7285 97.2683 13.4628Z" fill="white"/>
  <path d="M101.1 10.1825C101.1 11.212 101.1 12.2143 101.1 13.2384C103.999 13.2384 106.886 13.2384 109.788 13.2384C109.788 13.6288 109.788 13.9976 109.788 14.3886C106.905 14.3886 104.018 14.3886 101.109 14.3886C101.109 16.695 101.109 18.9796 101.109 21.2799C100.682 21.2799 100.277 21.2799 99.856 21.2799C99.856 16.2059 99.856 11.1299 99.856 6.03784C103.269 6.03784 106.684 6.03784 110.116 6.03784C110.116 6.43857 110.116 6.84391 110.116 7.27143C107.124 7.27143 104.128 7.27143 101.1 7.27143C101.1 8.24707 101.1 9.20109 101.1 10.1825Z" fill="white"/>
  <path d="M138.217 11.387C138.217 11.0873 138.217 10.8149 138.217 10.5268C138.597 10.5268 138.966 10.5268 139.351 10.5268C139.351 14.085 139.351 17.646 139.351 21.2239C138.988 21.2239 138.619 21.2239 138.23 21.2239C138.23 20.551 138.23 19.8717 138.23 19.1502C137.992 19.4186 137.781 19.652 137.575 19.8895C137.192 20.3295 136.716 20.6404 136.208 20.9153C135.537 21.2784 134.803 21.4151 134.063 21.4468C133.271 21.4808 132.484 21.3504 131.745 21.0358C131.043 20.7372 130.401 20.3397 129.882 19.7731C129.161 18.9862 128.679 18.0728 128.532 17.0083C128.464 16.5202 128.405 16.0219 128.427 15.5323C128.48 14.3956 128.821 13.3455 129.531 12.4367C130.285 11.4721 131.251 10.8284 132.448 10.5578C132.82 10.4739 133.204 10.4401 133.584 10.4037C134.559 10.3102 135.482 10.506 136.352 10.9492C137.116 11.3378 137.717 11.9059 138.217 12.7046C138.217 12.2198 138.217 11.817 138.217 11.387ZM132.06 11.8247C131.183 12.2149 130.507 12.8335 130.066 13.681C129.568 14.6369 129.428 15.6537 129.617 16.7239C129.871 18.1673 130.619 19.2486 131.931 19.8995C132.928 20.3939 133.987 20.4614 135.068 20.2011C137.059 19.7213 138.16 18.1069 138.321 16.2347C138.401 15.2906 138.182 14.392 137.719 13.566C137.244 12.7174 136.555 12.1076 135.631 11.7645C134.836 11.4693 134.023 11.3553 133.189 11.5037C132.82 11.5693 132.465 11.7137 132.06 11.8247Z" fill="white"/>
  <path d="M151.865 14.2708C151.887 14.3539 151.902 14.4161 151.902 14.4784C151.903 16.6858 151.903 18.8933 151.903 21.1008C151.903 21.1364 151.899 21.172 151.897 21.224C151.542 21.224 151.192 21.224 150.808 21.224C150.808 21.1332 150.808 21.0367 150.808 20.9402C150.808 18.9243 150.823 16.9082 150.8 14.8926C150.792 14.1808 150.616 13.5007 150.214 12.8811C149.755 12.173 149.096 11.7714 148.315 11.5617C147.898 11.4495 147.451 11.3867 147.02 11.3983C146.145 11.4219 145.34 11.6736 144.647 12.2556C143.919 12.8675 143.513 13.641 143.365 14.5642C143.33 14.7847 143.311 15.0103 143.311 15.2335C143.306 17.14 143.308 19.0464 143.308 20.9529C143.308 21.042 143.308 21.1311 143.308 21.2298C142.924 21.2298 142.561 21.2298 142.179 21.2298C142.179 17.669 142.179 14.101 142.179 10.5219C142.525 10.5219 142.869 10.5219 143.245 10.5219C143.245 11.1054 143.245 11.6974 143.245 12.3532C143.859 11.3881 144.655 10.7721 145.697 10.5031C146.328 10.3402 146.963 10.2581 147.628 10.3327C148.279 10.4057 148.907 10.5299 149.491 10.8142C150.748 11.4255 151.499 12.4402 151.792 13.7999C151.824 13.9473 151.832 14.0998 151.865 14.2708Z" fill="white"/>
  <path d="M126.282 15.876C126.282 17.6721 126.282 19.4408 126.282 21.2252C125.92 21.2252 125.569 21.2252 125.188 21.2252C125.188 21.1309 125.188 21.0341 125.188 20.9373C125.188 18.994 125.203 17.0505 125.179 15.1074C125.171 14.4537 125.06 13.8115 124.759 13.2026C124.282 12.2374 123.482 11.7265 122.48 11.5048C121.67 11.3255 120.862 11.351 120.063 11.6505C118.858 12.1025 118.128 12.9712 117.809 14.1822C117.683 14.6601 117.646 15.1722 117.64 15.6695C117.621 17.4301 117.633 19.1911 117.633 20.9519C117.633 21.0411 117.633 21.1303 117.633 21.2296C117.261 21.2296 116.91 21.2296 116.549 21.2296C116.549 17.6628 116.549 14.1072 116.549 10.5313C116.891 10.5313 117.242 10.5313 117.625 10.5313C117.625 11.0886 117.625 11.6628 117.625 12.2911C117.783 12.0921 117.9 11.941 118.021 11.7926C118.672 10.9912 119.529 10.557 120.536 10.4041C120.889 10.3505 121.249 10.2844 121.603 10.2999C122.935 10.3584 124.159 10.7153 125.11 11.7219C125.684 12.3297 126.043 13.0617 126.161 13.88C126.255 14.5284 126.246 15.1919 126.282 15.876Z" fill="white"/>
  <path d="M58.6182 12.9746C58.6182 12.1275 58.6182 11.3077 58.6182 10.4722C59.5285 10.4722 60.4264 10.4722 61.3399 10.4722C61.3399 14.0494 61.3399 17.6294 61.3399 21.2252C60.4451 21.2252 59.5472 21.2252 58.6182 21.2252C58.6182 18.4859 58.6182 15.7439 58.6182 12.9746Z" fill="white"/>
  <path d="M155.805 11.6723C156.672 10.9653 157.643 10.5801 158.737 10.4484C159.962 10.3011 161.119 10.4736 162.198 11.0664C162.614 11.2953 162.988 11.602 163.369 11.8898C163.412 11.9224 163.408 12.0842 163.367 12.1474C163.289 12.2667 163.168 12.3578 163.064 12.4609C162.779 12.7461 162.77 12.7563 162.467 12.5044C161.775 11.9287 160.987 11.6079 160.092 11.4875C159.159 11.3619 158.274 11.5116 157.446 11.9082C156.239 12.4867 155.498 13.4537 155.237 14.7841C155.059 15.6893 155.062 16.583 155.353 17.4591C155.806 18.8193 156.74 19.6797 158.11 20.1017C159.321 20.4747 160.485 20.3709 161.601 19.807C162.009 19.6009 162.364 19.2908 162.789 18.9968C162.976 19.19 163.203 19.4103 163.408 19.6492C163.44 19.6865 163.4 19.8362 163.347 19.8873C162.866 20.3571 162.302 20.7034 161.685 20.9663C160.789 21.3482 159.843 21.4184 158.892 21.3419C157.833 21.2567 156.861 20.8926 156.017 20.2334C154.907 19.3659 154.267 18.2259 154.092 16.8271C153.903 15.3137 154.077 13.8705 154.975 12.5896C155.207 12.2598 155.517 11.9855 155.805 11.6723Z" fill="white"/>
  <path d="M112.432 14.781C112.432 13.3318 112.432 11.91 112.432 10.4722C112.813 10.4722 113.182 10.4722 113.566 10.4722C113.566 14.049 113.566 17.6289 113.566 21.2248C113.201 21.2248 112.832 21.2248 112.432 21.2248C112.432 19.088 112.432 16.9482 112.432 14.781Z" fill="white"/>
  <path d="M58.3993 7.40213C58.49 6.29835 59.4177 5.84475 60.3315 6.0012C61.4601 6.1944 61.7882 7.35881 61.4508 8.24449C61.2781 8.69797 60.6861 9.07356 60.1898 9.09091C59.7336 9.10686 59.294 9.07045 58.93 8.76462C58.517 8.41771 58.3583 7.95963 58.3993 7.40213Z" fill="white"/>
  <path d="M6.23198 22.035C6.8926 21.7436 7.53959 21.4477 8.20934 21.2182C9.25016 20.8616 10.3269 20.655 11.4514 20.585C11.4776 20.9874 11.4796 21.3885 11.4533 21.8156C10.3879 21.8986 9.37129 22.0845 8.38991 22.4156C7.66013 22.6618 6.95405 22.9782 6.23742 23.2634C6.23446 22.8624 6.23151 22.4614 6.23198 22.035Z" fill="white"/>
  <path d="M13.5681 20.6108C14.7287 20.647 15.8526 20.8807 16.9421 21.266C17.5229 21.4714 18.0877 21.7222 18.6798 21.9535C18.7026 22.356 18.7054 22.7576 18.6848 23.1828C18.1757 23.0036 17.697 22.7812 17.2026 22.6019C16.03 22.1768 14.8213 21.9098 13.5726 21.8408C13.5698 21.4392 13.567 21.0377 13.5681 20.6108Z" fill="white"/>
  <path d="M20.6848 23.2922C20.9229 23.431 21.1811 23.57 21.3874 23.7642C21.8938 24.2407 22.4019 24.72 22.861 25.2408C23.2829 25.7195 23.6418 26.2537 24.0465 26.7671C24.0673 27.1903 24.0701 27.6099 24.0552 28.0436C23.5269 27.402 23.058 26.7075 22.4938 26.1019C21.943 25.5108 21.2947 25.0104 20.6892 24.4702C20.6865 24.086 20.6838 23.7018 20.6848 23.2922Z" fill="white"/>
  <path d="M11.4762 22.3877C11.4762 22.6139 11.4762 22.8401 11.4762 23.1108C9.63815 23.2551 7.90007 23.7526 6.22754 24.5815C6.22754 24.3139 6.22754 24.088 6.25095 23.8381C6.32571 23.7979 6.38039 23.7884 6.42792 23.7647C8.01916 22.9698 9.71472 22.5582 11.4762 22.3877Z" fill="white"/>
  <path d="M18.7015 23.8091C18.7015 24.0363 18.7015 24.2635 18.7015 24.5426C17.0725 23.7217 15.3613 23.2704 13.564 23.1095C13.564 22.8556 13.564 22.6471 13.5894 22.4155C14.025 22.4478 14.4376 22.4891 14.8448 22.5609C16.1876 22.7978 17.4768 23.2049 18.7015 23.8091Z" fill="white"/>
  <path d="M11.4792 22.363C9.71486 22.5581 8.0193 22.9698 6.42806 23.7647C6.38052 23.7884 6.32585 23.7978 6.25424 23.8127C6.23239 23.6453 6.23079 23.4791 6.23332 23.2882C6.95407 22.9783 7.66015 22.6618 8.38993 22.4156C9.37131 22.0846 10.3879 21.8987 11.4493 21.8408C11.4764 22.0062 11.4793 22.1723 11.4792 22.363Z" fill="white"/>
  <path d="M18.7051 23.7844C17.4771 23.2048 16.1878 22.7977 14.8451 22.5608C14.4378 22.4889 14.0252 22.4477 13.5928 22.39C13.5687 22.2218 13.5669 22.056 13.569 21.8655C14.8217 21.9098 16.0304 22.1768 17.203 22.6019C17.6974 22.7812 18.1761 23.0036 18.6813 23.2081C18.7032 23.3931 18.7058 23.5764 18.7051 23.7844Z" fill="white"/>
  <path d="M113.91 7.01056C113.901 7.55273 113.516 7.94667 113.028 7.93765C112.554 7.92887 112.17 7.5846 112.158 7.15716C112.143 6.61034 112.429 6.22244 112.85 6.18336C113.622 6.11162 113.89 6.54486 113.91 7.01056Z" fill="white"/>
  <path d="M24.0687 28.6284C24.0687 28.8645 24.0687 29.1006 24.0687 29.3937C23.8152 29.0389 23.5998 28.7106 23.3575 28.4036C22.6697 27.5321 21.9435 26.6911 21.0261 26.0531C20.6616 25.7996 20.656 25.481 20.706 25.0964C21.6083 25.7146 22.3889 26.4588 23.0637 27.3116C23.4063 27.7445 23.7342 28.1891 24.0687 28.6284Z" fill="white"/>
  <path d="M24.0713 28.6036C23.7343 28.1889 23.4064 27.7444 23.0638 27.3114C22.389 26.4586 21.6083 25.7144 20.7106 25.0709C20.6888 24.8848 20.6853 24.7022 20.6856 24.4949C21.2949 25.0103 21.9432 25.5107 22.494 26.1018C23.0582 26.7074 23.5271 27.4019 24.0515 28.0686C24.0681 28.2461 24.0709 28.4125 24.0713 28.6036Z" fill="white"/>
  </g>
  <defs>
  <clipPath id="clip0_219_655">
  <rect width="175.675" height="30" fill="white" transform="translate(0.479492)"/>
  </clipPath>
  </defs>
  </svg>
  