<svg width="136" height="22" viewBox="0 0 136 22" fill="none" xmlns="http://www.w3.org/2000/svg">
  <g clip-path="url(#clip0_164_19738)">
  <path d="M120.657 15.0162V6.58759C120.657 2.19322 123.971 1.34591e-06 127.82 0C131.652 -1.34009e-06 134.983 2.28178 134.983 6.58759V15.0162H131.042V6.58759C131.042 4.82893 129.579 3.36571 127.82 3.36571C126.054 3.36571 124.598 4.81854 124.598 6.58759V15.0162H120.657Z" fill="white"/>
  <path d="M93.3456 15.3612C91.7132 15.3612 90.1138 14.4329 89.5484 12.8585L85.3486 0.344977L89.635 0.344975L93.0288 11.2476C93.0868 11.4044 93.221 11.4777 93.3742 11.4777C93.5165 11.4777 93.6646 11.4029 93.7196 11.2476L97.1428 0.344973L101.343 0.344971L97.1428 12.8298C96.5789 14.401 94.9788 15.3612 93.3456 15.3612Z" fill="white"/>
  <path d="M75.6877 15.3614C71.5138 15.3614 69.0425 11.9957 69.0425 7.70946C69.0425 2.99395 72.4091 1.55886e-06 76.8669 0C81.319 -1.55673e-06 84.5193 2.88914 84.5193 7.70946V15.0162H80.5776V12.5711H80.5204C79.5128 14.3851 77.7491 15.3614 75.6877 15.3614ZM76.8097 11.9957C79.1953 11.9957 80.5204 9.85329 80.5204 7.65197C80.5204 5.46905 79.1593 3.36571 76.8097 3.36571C74.4147 3.36571 73.0411 5.41581 73.0411 7.65197C73.0411 9.86605 74.378 11.9957 76.8097 11.9957Z" fill="white"/>
  <path d="M42.8262 15.0163V6.29993C42.8262 2.04245 46.1554 4.8212e-06 49.8452 3.53088e-06C51.6893 2.88603e-06 53.5906 0.656375 54.8506 2.04244H54.8794C56.1914 0.667975 58.0622 6.57485e-07 59.9424 0C63.625 -1.2878e-06 66.9615 2.04243 66.9615 6.29992V15.0163H63.0204V6.29992C63.0204 4.65274 61.5421 3.36571 59.9424 3.36571C58.3262 3.36571 56.8643 4.64552 56.8643 6.29993V15.0163H52.9233V6.29993C52.9233 4.65275 51.445 3.36571 49.8452 3.36571C48.2291 3.36571 46.7672 4.64553 46.7672 6.29993V15.0163H42.8262Z" fill="white"/>
  <path d="M117.796 0.370904V13.057C117.796 18.5974 115.135 21.9992 109.794 21.9992C107.323 21.9992 104.91 20.9889 102.986 19.3026L104.621 16.6636C105.992 17.7887 107.888 18.6542 109.794 18.6541C112.74 18.6541 114.064 16.5558 114.064 13.8723V13.2553C113.196 14.5643 111.31 15.4006 109.51 15.4006C107.447 15.4006 105.817 14.8211 104.621 13.6619C103.445 12.5028 102.857 10.7641 102.857 8.44569V0.370909L106.786 0.370908V7.97416C106.786 10.3331 107.627 11.9628 110.097 11.9628C112.809 11.9628 113.851 10.469 113.851 7.83497V0.37085L117.796 0.370904Z" fill="white"/>
  <path fill-rule="evenodd" clip-rule="evenodd" d="M12.0346 6.98668e-05L0.120605 5.95583e-06V0.72427C0.120606 3.32914 2.05569 5.3918 4.28945 5.86425C4.088 6.63356 3.96454 7.49709 3.96454 8.07004C3.96454 12.527 7.5776 16.1401 12.0346 16.1401C13.9769 16.1401 15.76 15.4531 17.1523 14.31C18.5447 15.4531 20.3277 16.1401 22.2701 16.1401C26.727 16.1401 30.34 12.527 30.34 8.07004C30.34 7.49709 30.2166 6.63355 30.0151 5.86425C32.2489 5.3918 34.184 3.32914 34.184 0.724264V0L22.2701 6.80772e-05C20.3277 6.84168e-05 18.5447 0.687032 17.1523 1.83014C15.7599 0.687032 13.9769 6.95272e-05 12.0346 6.98668e-05ZM4.70891 4.47035C3.28027 4.22302 1.95704 3.03202 1.64057 1.44853L12.0345 1.44859C13.8285 1.44859 15.4546 2.16103 16.6477 3.32L17.1523 3.81019L17.6569 3.32C18.85 2.16103 20.4761 1.44859 22.2701 1.44859L32.6641 1.44853C32.3543 2.99826 31.0803 4.17207 29.6869 4.45325C29.2925 4.52594 28.5192 4.5 27.7424 4.43271C26.9886 4.36743 26.2912 4.87684 26.1677 5.62331L26.1555 5.69758C26.637 5.76641 27.1212 5.81931 27.6062 5.86131C27.8863 5.88557 28.2036 5.90864 28.5259 5.92142C28.7419 6.61644 28.8915 7.54028 28.8915 8.07004C28.8915 9.66159 28.33 11.122 27.3943 12.264C27.2834 12.13 27.1698 11.9887 27.0508 11.8407C26.8741 11.6211 26.6856 11.3866 26.4761 11.1391C26.1213 10.7199 25.7118 10.2722 25.2479 9.91606C25.7014 9.30336 25.9697 8.54517 25.9697 7.72427C25.9697 5.68798 24.3189 4.0372 22.2825 4.0372C20.2462 4.0372 18.5954 5.68798 18.5954 7.72427C18.5954 8.53937 18.8599 9.29265 19.3076 9.90301C18.8366 10.2612 18.4214 10.7147 18.0623 11.1391C17.853 11.3865 17.6645 11.6208 17.4879 11.8404L17.4874 11.8411C17.3636 11.9949 17.2458 12.1414 17.1307 12.2801C17.0155 12.1414 16.8975 11.9946 16.7737 11.8407C16.5971 11.6211 16.4085 11.3866 16.1991 11.1391C15.8422 10.7173 15.4298 10.2667 14.9623 9.90953C15.413 9.29801 15.6793 8.54223 15.6793 7.72427C15.6793 5.68798 14.0286 4.03721 11.9922 4.03721C9.95587 4.03721 8.30506 5.68798 8.30506 7.72435C8.30506 8.54223 8.57141 9.29801 9.02212 9.90953C8.55462 10.2667 8.14219 10.7173 7.78535 11.1391C7.57591 11.3866 7.38733 11.6211 7.21069 11.8407C7.09943 11.9791 6.9929 12.1115 6.88885 12.2376C5.966 11.0996 5.41307 9.64942 5.41307 8.07004C5.41307 7.54299 5.56115 6.62592 5.77537 5.93215C6.10745 5.91964 6.43536 5.8959 6.72377 5.87089C7.20871 5.82885 7.69295 5.77588 8.17446 5.70695L8.1617 5.62965C8.03842 4.88324 7.34113 4.37383 6.58744 4.43918C5.85187 4.50295 5.11945 4.52959 4.70891 4.47035ZM24.1424 10.9087C23.5964 11.2282 22.9609 11.4114 22.2825 11.4114C21.5986 11.4114 20.9581 11.2251 20.409 10.9006C20.0174 11.1412 19.6105 11.5519 19.1681 12.0748C19.015 12.2558 18.8527 12.4569 18.6866 12.6628C18.5205 12.8688 18.3506 13.0794 18.1821 13.2793C19.3081 14.1644 20.7269 14.6915 22.2701 14.6915C23.8123 14.6915 25.2314 14.1643 26.3569 13.2802C26.1883 13.08 26.0181 12.869 25.8518 12.6628C25.6857 12.4569 25.5234 12.2558 25.3703 12.0748C24.9328 11.5577 24.53 11.1503 24.1424 10.9087ZM10.1255 10.9047C9.73587 11.1458 9.33107 11.5548 8.89107 12.0748C8.73795 12.2558 8.57566 12.4569 8.40956 12.6628C8.24896 12.862 8.0847 13.0656 7.92168 13.2597C9.0513 14.1561 10.4804 14.6915 12.0346 14.6915C13.5658 14.6915 14.9747 14.1725 16.0965 13.2997C15.9224 13.0937 15.7466 12.8758 15.5749 12.6628C15.4088 12.457 15.2464 12.2557 15.0934 12.0748C14.6534 11.5548 14.2485 11.1457 13.859 10.9047C13.3114 11.2267 12.6734 11.4114 11.9922 11.4114C11.311 11.4114 10.673 11.2267 10.1255 10.9047ZM24.5212 7.72427C24.5212 8.9606 23.5189 9.96292 22.2825 9.96292C21.0462 9.96292 20.044 8.9606 20.0439 7.72427C20.0439 6.48798 21.0462 5.48572 22.2825 5.48572C23.5189 5.48572 24.5212 6.48798 24.5212 7.72427ZM14.2308 7.72427C14.2308 8.9606 13.2286 9.96292 11.9922 9.96292C10.7559 9.96292 9.75354 8.9606 9.75354 7.72435C9.75354 6.48798 10.7558 5.48572 11.9922 5.48572C13.2286 5.48572 14.2308 6.48798 14.2308 7.72427Z" fill="white"/>
  </g>
  <defs>
  <clipPath id="clip0_164_19738">
  <rect width="134.933" height="22" fill="white" transform="translate(0.0869141)"/>
  </clipPath>
  </defs>
  </svg>
  