<svg width="101" height="30" viewBox="0 0 101 30" fill="none" xmlns="http://www.w3.org/2000/svg">
  <g clip-path="url(#clip0_194_20359)">
  <path d="M3.3025 0.437496C2.02125 0.999996 0.708752 2.59375 0.490002 3.84375C0.396252 4.40625 0.333752 9.78125 0.396252 15.8437C0.490002 26.375 0.521252 26.875 1.14625 27.6875C1.49 28.1562 2.1775 28.8437 2.64625 29.1875C3.49 29.8125 3.865 29.8438 15.3338 29.8438C26.8025 29.8438 27.1775 29.8125 28.0213 29.1875C28.49 28.8437 29.1775 28.1562 29.5213 27.6875C30.1463 26.8437 30.1775 26.4687 30.1775 15C30.1775 3.53125 30.1463 3.15625 29.5213 2.3125C29.1775 1.84375 28.49 1.15625 28.0213 0.812496C27.2088 0.187496 26.74 0.156246 15.7088 0.0937462C6.64625 0.0312462 4.0525 0.0937462 3.3025 0.437496ZM25.9588 9.53125L24.2713 11.25H15.4275C8.24 11.25 6.58375 11.1562 6.58375 10.8437C6.58375 10.2812 7.33375 9.625 9.08375 8.625L10.49 7.8125H19.0838H27.6463L25.9588 9.53125ZM25.9275 13.6875C27.99 14.7187 27.9275 17.3125 25.7713 19.6875C23.5525 22.125 23.24 22.1875 12.5213 22.1875H3.02125L4.70875 20.4687L6.39625 18.75H14.5213C21.615 18.75 22.7088 18.6875 23.2088 18.2187C23.8963 17.5937 23.9275 17 23.2713 16.75C22.99 16.6562 19.615 16.5625 15.7088 16.5625H8.64625L10.3338 14.8437L12.0213 13.125H18.4588C23.9275 13.125 25.0213 13.2187 25.9275 13.6875Z" fill="white"/>
  <path d="M44.7087 8.15625C42.6462 9 41.5212 11.3125 42.3024 13.1875C42.8649 14.5625 43.3024 14.875 46.1774 16.0625C48.3962 16.9688 48.6149 17.125 48.7087 18C48.8337 19.3125 47.8962 20.0938 46.1462 20.0938C44.6149 20.0938 43.1462 19.3438 42.9274 18.4062C42.8024 17.9375 42.4899 17.8125 41.5524 17.8125C40.1149 17.8125 39.9899 18.3125 40.9587 19.9375C41.7712 21.2812 43.7712 22.1562 45.8962 22.1875C49.1774 22.1875 51.2712 20.5 51.2712 17.7812C51.2712 15.625 50.3649 14.8125 46.6462 13.625C45.4274 13.2188 44.9587 12.9062 44.8337 12.3438C44.5212 11.0312 44.8337 10.5 46.0837 10.0625C47.6462 9.5625 49.2712 10.0312 49.7712 11.125C50.0524 11.7188 50.3649 11.875 51.3337 11.875C52.4587 11.875 52.5524 11.8125 52.3649 11.1562C52.0212 10 51.1149 8.9375 49.9899 8.375C48.8024 7.75 45.9899 7.65625 44.7087 8.15625Z" fill="white"/>
  <path d="M92.9902 8.25C91.8652 8.75 90.8027 9.875 90.4902 10.8437C90.3027 11.5 90.3965 11.5625 91.5527 11.5625C92.4902 11.5625 92.834 11.4375 92.834 11.0625C92.834 10.4062 94.8652 9.59375 95.9902 9.84375C97.5527 10.1875 98.0215 12 96.834 13.125C96.334 13.5937 95.7402 13.75 94.4902 13.75C93.3652 13.75 92.834 13.875 92.834 14.125C92.834 14.3437 92.7402 14.8437 92.6465 15.2187C92.459 15.9062 92.5527 15.9375 94.0215 15.9375C95.9902 15.9375 96.6465 16.5 96.5215 18.0937C96.4277 19.0625 96.2402 19.3125 95.2402 19.8125C93.6152 20.5937 91.834 20.125 91.209 18.75C90.8965 18 90.6152 17.8125 89.8027 17.8125C88.8652 17.8125 88.7715 17.9062 88.7715 18.7187C88.7715 20.6875 90.9277 22.1875 93.7715 22.1875C96.8965 22.1875 99.084 20.4687 99.084 18C99.084 16.5937 98.7715 16.0312 97.5215 15.1875C96.8965 14.7812 96.8652 14.6875 97.334 14.6875C97.6465 14.6875 98.3652 14.2187 98.959 13.625C100.428 12.1562 100.428 10.75 98.959 9.15625C97.9902 8.09375 97.7715 8 95.9277 7.90625C94.6777 7.84375 93.584 7.96875 92.9902 8.25Z" fill="white"/>
  <path d="M80.209 10.375C78.334 18.9687 77.834 21.4062 77.834 21.6562C77.834 21.7812 78.3652 21.875 78.9902 21.8125C80.209 21.7187 80.1465 21.8125 80.7715 19.0625C80.8652 18.625 81.209 18.0937 81.584 17.875C82.1465 17.5312 82.2715 17.6562 83.3027 19.6875C84.3965 21.8437 84.4277 21.875 85.6465 21.875H86.8965L85.459 19L84.0215 16.125L86.4902 13.875L88.9277 11.5937L87.6152 11.5625C86.4277 11.5625 86.0527 11.7812 84.0215 13.5625C82.7715 14.6875 81.709 15.4687 81.6465 15.3437C81.6152 15.1875 81.8965 13.5312 82.3027 11.5937L83.0527 8.125H81.8652H80.6777L80.209 10.375Z" fill="white"/>
  <path d="M55.4273 10.5312C55.2086 11.4999 54.9898 11.7499 54.3336 11.8124C53.7086 11.8749 53.4898 12.1249 53.3961 12.8437C53.2711 13.6249 53.3648 13.7499 54.0211 13.7499C54.6461 13.7499 54.7398 13.8749 54.6148 14.4374C53.4586 19.2499 53.3648 20.2499 53.8648 21.0624C54.3961 21.8437 55.9273 22.3437 57.1148 22.1249C57.9273 21.9687 58.0836 20.3124 57.2711 20.3124C56.0211 20.3124 55.8648 19.5937 56.4898 16.6562L57.0836 13.9062L58.2398 13.8124C58.9586 13.7499 59.3961 13.5624 59.3961 13.2812C59.3961 13.0624 59.4898 12.6562 59.5836 12.3749C59.7398 11.9687 59.5523 11.8749 58.6461 11.8749C57.5836 11.8749 57.5211 11.8437 57.7086 10.9999C57.8023 10.5312 57.9273 9.96867 58.0211 9.74992C58.0836 9.49992 57.7398 9.37492 56.9273 9.37492C55.7711 9.37492 55.6773 9.43742 55.4273 10.5312Z" fill="white"/>
  <path d="M61.2714 11.6562C61.2714 11.75 59.5214 19.875 59.2402 21.1562C59.0839 21.8125 59.1777 21.875 60.2714 21.875H61.4902L62.0527 19.125C62.9902 14.4688 63.6464 13.5625 65.8339 13.8125C66.8964 13.9375 67.2089 13.5625 67.2089 12.0938C67.2089 11.3125 65.3339 11.375 64.2714 12.2188L63.4589 12.8438V12.2188C63.4589 11.6875 63.2714 11.5625 62.3652 11.5625C61.7714 11.5625 61.2714 11.5938 61.2714 11.6562Z" fill="white"/>
  <path d="M69.959 12.1875C68.6465 12.875 67.3965 14.8438 67.084 16.625C66.8027 18.25 67.334 20.0313 68.459 21.0938C69.209 21.8125 69.709 22 71.1777 22.0938C73.4277 22.25 75.1465 21.3438 76.1777 19.5313C77.6777 16.875 77.3965 14.2188 75.459 12.5C74.5527 11.7188 74.1152 11.5625 72.7402 11.5625C71.7402 11.5938 70.6465 11.8438 69.959 12.1875ZM73.9277 14.2188C74.834 15.0938 74.959 16.625 74.3027 18.2188C73.7715 19.4688 73.209 19.9375 71.959 20.1875C70.6465 20.4688 69.3965 19.25 69.3965 17.6563C69.3965 14.3438 72.0527 12.3125 73.9277 14.2188Z" fill="white"/>
  </g>
  <defs>
  <clipPath id="clip0_194_20359">
  <rect width="100" height="30" fill="white" transform="translate(0.333984)"/>
  </clipPath>
  </defs>
  </svg>
  